<mxfile host="app.diagrams.net" modified="2023-09-17T22:25:35.417Z" agent="Mozilla/5.0 (X11; Linux x86_64; rv:109.0) Gecko/20100101 Firefox/115.0" etag="9hQnANLm7BoRUbWUgcBV" version="21.7.5" type="device">
  <diagram name="Page-1" id="TL9CeTqhdVdMymI6Qe_W">
    <mxGraphModel dx="794" dy="1087" grid="1" gridSize="10" guides="1" tooltips="1" connect="1" arrows="1" fold="1" page="1" pageScale="1" pageWidth="827" pageHeight="1169" math="0" shadow="0">
      <root>
        <mxCell id="0" />
        <mxCell id="1" parent="0" />
        <mxCell id="pWt0abBiEEKSwPhreDza-3" value="&lt;b&gt;&lt;font style=&quot;font-size: 14px;&quot;&gt;Network driver&lt;/font&gt;&lt;/b&gt;" style="rounded=0;whiteSpace=wrap;html=1;" parent="1" vertex="1">
          <mxGeometry x="370" y="120" width="110" height="80" as="geometry" />
        </mxCell>
        <mxCell id="pWt0abBiEEKSwPhreDza-4" value="&lt;b&gt;&lt;font style=&quot;font-size: 14px;&quot;&gt;Block&amp;nbsp;driver&lt;/font&gt;&lt;/b&gt;" style="rounded=0;whiteSpace=wrap;html=1;" parent="1" vertex="1">
          <mxGeometry x="370" y="220" width="110" height="80" as="geometry" />
        </mxCell>
        <mxCell id="pWt0abBiEEKSwPhreDza-5" value="&lt;b&gt;&lt;font style=&quot;font-size: 14px;&quot;&gt;Timer driver&lt;/font&gt;&lt;/b&gt;" style="rounded=0;whiteSpace=wrap;html=1;" parent="1" vertex="1">
          <mxGeometry x="370" y="320" width="110" height="80" as="geometry" />
        </mxCell>
        <mxCell id="pWt0abBiEEKSwPhreDza-8" value="&lt;b&gt;&lt;font style=&quot;font-size: 14px;&quot;&gt;HTTP server&lt;/font&gt;&lt;/b&gt;&lt;br&gt;&lt;br&gt;Co-op. multitasking&lt;br&gt;Filesystem&lt;br&gt;TCP/IP stack&lt;br&gt;MbedTLS&lt;br&gt;" style="rounded=0;whiteSpace=wrap;html=1;" parent="1" vertex="1">
          <mxGeometry x="590" y="120" width="120" height="280" as="geometry" />
        </mxCell>
        <mxCell id="pWt0abBiEEKSwPhreDza-22" value="" style="endArrow=classic;startArrow=classic;html=1;rounded=0;" parent="1" edge="1">
          <mxGeometry width="50" height="50" relative="1" as="geometry">
            <mxPoint x="480" y="159.66" as="sourcePoint" />
            <mxPoint x="590" y="159.66" as="targetPoint" />
          </mxGeometry>
        </mxCell>
        <mxCell id="pWt0abBiEEKSwPhreDza-23" value="" style="endArrow=classic;startArrow=classic;html=1;rounded=0;" parent="1" edge="1">
          <mxGeometry width="50" height="50" relative="1" as="geometry">
            <mxPoint x="480" y="259.65999999999997" as="sourcePoint" />
            <mxPoint x="590" y="259.65999999999997" as="targetPoint" />
          </mxGeometry>
        </mxCell>
        <mxCell id="pWt0abBiEEKSwPhreDza-25" value="sDDF" style="text;html=1;align=center;verticalAlign=middle;resizable=0;points=[];autosize=1;strokeColor=none;fillColor=none;" parent="1" vertex="1">
          <mxGeometry x="510" y="128" width="50" height="30" as="geometry" />
        </mxCell>
        <mxCell id="pWt0abBiEEKSwPhreDza-26" value="sDDF" style="text;html=1;align=center;verticalAlign=middle;resizable=0;points=[];autosize=1;strokeColor=none;fillColor=none;" parent="1" vertex="1">
          <mxGeometry x="510" y="230" width="50" height="30" as="geometry" />
        </mxCell>
        <mxCell id="pWt0abBiEEKSwPhreDza-27" value="pp_call()" style="text;html=1;align=center;verticalAlign=middle;resizable=0;points=[];autosize=1;strokeColor=none;fillColor=none;" parent="1" vertex="1">
          <mxGeometry x="500" y="320" width="70" height="30" as="geometry" />
        </mxCell>
        <mxCell id="pWt0abBiEEKSwPhreDza-28" value="" style="endArrow=classic;html=1;rounded=0;" parent="1" edge="1">
          <mxGeometry width="50" height="50" relative="1" as="geometry">
            <mxPoint x="480" y="370" as="sourcePoint" />
            <mxPoint x="590" y="370" as="targetPoint" />
          </mxGeometry>
        </mxCell>
        <mxCell id="pWt0abBiEEKSwPhreDza-29" value="" style="endArrow=classic;html=1;rounded=0;" parent="1" edge="1">
          <mxGeometry width="50" height="50" relative="1" as="geometry">
            <mxPoint x="590" y="350" as="sourcePoint" />
            <mxPoint x="480" y="350" as="targetPoint" />
          </mxGeometry>
        </mxCell>
        <mxCell id="pWt0abBiEEKSwPhreDza-30" value="notify()" style="text;html=1;align=center;verticalAlign=middle;resizable=0;points=[];autosize=1;strokeColor=none;fillColor=none;" parent="1" vertex="1">
          <mxGeometry x="505" y="370" width="60" height="30" as="geometry" />
        </mxCell>
        <mxCell id="pWt0abBiEEKSwPhreDza-32" value="&lt;b&gt;&lt;font style=&quot;font-size: 14px;&quot;&gt;Microkit monitor&lt;/font&gt;&lt;/b&gt;" style="rounded=0;whiteSpace=wrap;html=1;fillColor=#f5f5f5;fontColor=#333333;strokeColor=#666666;" parent="1" vertex="1">
          <mxGeometry x="370" y="420" width="340" height="30" as="geometry" />
        </mxCell>
        <mxCell id="pWt0abBiEEKSwPhreDza-33" value="&lt;b&gt;&lt;font style=&quot;font-size: 14px;&quot;&gt;seL4&lt;/font&gt;&lt;/b&gt;" style="rounded=0;whiteSpace=wrap;html=1;fillColor=#d4d4d4;fontColor=#333333;strokeColor=#666666;fillStyle=solid;" parent="1" vertex="1">
          <mxGeometry x="370" y="470" width="340" height="30" as="geometry" />
        </mxCell>
        <mxCell id="MdkQfeQbcMsvQCLdebY3-1" value="virtio-net" style="rounded=0;whiteSpace=wrap;html=1;fillColor=#9a9996;rotation=-90;" vertex="1" parent="1">
          <mxGeometry x="290" y="145" width="80" height="30" as="geometry" />
        </mxCell>
        <mxCell id="MdkQfeQbcMsvQCLdebY3-2" value="virtio-blk" style="rounded=0;whiteSpace=wrap;html=1;fillColor=#9a9996;rotation=-90;" vertex="1" parent="1">
          <mxGeometry x="290" y="245" width="80" height="30" as="geometry" />
        </mxCell>
        <mxCell id="MdkQfeQbcMsvQCLdebY3-3" value="sp804" style="rounded=0;whiteSpace=wrap;html=1;fillColor=#9a9996;rotation=-90;" vertex="1" parent="1">
          <mxGeometry x="290" y="345" width="80" height="30" as="geometry" />
        </mxCell>
        <mxCell id="MdkQfeQbcMsvQCLdebY3-5" value="" style="shape=curlyBracket;whiteSpace=wrap;html=1;rounded=1;labelPosition=left;verticalLabelPosition=middle;align=right;verticalAlign=middle;rotation=90;" vertex="1" parent="1">
          <mxGeometry x="320" y="80" width="20" height="30" as="geometry" />
        </mxCell>
        <mxCell id="MdkQfeQbcMsvQCLdebY3-6" value="&lt;div&gt;Devices&lt;/div&gt;" style="text;html=1;align=center;verticalAlign=middle;resizable=0;points=[];autosize=1;strokeColor=none;fillColor=none;" vertex="1" parent="1">
          <mxGeometry x="295" y="50" width="70" height="30" as="geometry" />
        </mxCell>
        <mxCell id="MdkQfeQbcMsvQCLdebY3-8" value="Static site" style="strokeWidth=1;html=1;shape=mxgraph.flowchart.database;whiteSpace=wrap;" vertex="1" parent="1">
          <mxGeometry x="220" y="235" width="70" height="50" as="geometry" />
        </mxCell>
      </root>
    </mxGraphModel>
  </diagram>
</mxfile>
